<svg width="119" height="43" viewBox="0 0 119 43" fill="none" xmlns="http://www.w3.org/2000/svg">
<path d="M6.4463 27.4902L0 21.0234L20.9332 0.0233765H33.8258" fill="#333333"/>
<path d="M33.8258 19.4008H20.9332L16.1042 24.2452L22.5505 30.712" fill="#FFE936"/>
<path d="M16.1042 37.1789L20.9332 42.0233H33.8258L22.5505 30.712" fill="#FF0F21"/>
<path d="M16.1092 24.259L9.67212 30.7165L16.1092 37.1741L22.5461 30.7165L16.1092 24.259Z" fill="#FFE936"/>
<path d="M22.5461 30.7166L16.1092 37.1741L17.0077 38.0755L23.4447 31.6179L22.5461 30.7166Z" fill="url(#paint0_linear_255_9129)"/>
<path d="M16.1042 37.1789L25.6696 33.8644L22.5505 30.712" fill="url(#paint1_linear_255_9129)"/>
<path d="M42.3488 0.0233765H53.9912V2.3152H44.7118V9.23757H53.0919V11.4968H44.7118V20.2645H42.3488V0.0233765Z" fill="black"/>
<path d="M58.8432 0.0233765H56.4517V20.2502H58.8432V0.0233765Z" fill="black"/>
<path d="M62.9093 19.1777C61.9998 18.1608 61.545 16.7384 61.545 14.91V5.84467H63.9344V14.5451C63.9344 15.922 64.2444 16.93 64.8642 17.5688C65.484 18.2076 66.3178 18.5279 67.3653 18.5292C68.1312 18.5416 68.8826 18.3149 69.5151 17.8809C70.1401 17.4518 70.6439 16.8673 70.9768 16.1844C71.3223 15.5017 71.5011 14.7461 71.4985 13.9802V5.84467H73.89V20.2521H71.6102V18.1703H71.4985C71.0509 18.9386 70.3974 19.5653 69.6126 19.979C68.7738 20.4621 67.8229 20.7152 66.8557 20.7129C65.1368 20.7062 63.8214 20.1945 62.9093 19.1777Z" fill="black"/>
<path d="M80.8998 20.4133C80.4346 20.2422 80.0086 19.9786 79.6472 19.6384C79.2781 19.2828 78.9906 18.8507 78.8047 18.3721C78.6026 17.8098 78.5067 17.2145 78.5225 16.6166V8.02024H76.0194V5.84464H78.5225V1.77686H80.9119V5.84464H84.3995V8.02024H80.9119V16.0477C80.9119 16.8634 81.0621 17.4526 81.3625 17.838C81.7185 18.2621 82.234 18.4742 82.9095 18.4742C83.4696 18.469 84.0167 18.3021 84.4848 17.9929V20.3378C84.2107 20.4663 83.9225 20.5615 83.6261 20.6211C83.2593 20.6828 82.8875 20.7109 82.5157 20.7047C81.9637 20.7081 81.4159 20.6091 80.8998 20.4133Z" fill="black"/>
<path d="M90.7822 20.4133C90.3179 20.2418 89.8926 19.978 89.5317 19.6384C89.162 19.2828 88.8739 18.8507 88.6871 18.3721C88.4856 17.8097 88.3905 17.2142 88.407 16.6166V8.02024H85.9039V5.84464H88.407V1.77686H90.7964V5.84464H94.2841V8.02024H90.7964V16.0477C90.7964 16.8634 90.9466 17.4526 91.2451 17.838C91.6022 18.2621 92.1186 18.4742 92.794 18.4742C93.3535 18.4693 93.9 18.3023 94.3673 17.9929V20.3378C94.094 20.4664 93.8064 20.5616 93.5106 20.6211C93.1432 20.6828 92.7706 20.7108 92.3981 20.7047C91.8464 20.7073 91.2986 20.6083 90.7822 20.4133Z" fill="black"/>
<path d="M98.8679 19.7139C97.7857 19.0586 96.9053 18.1149 96.3243 16.9878C95.7021 15.7789 95.3875 14.4337 95.4087 13.0729C95.3951 11.7433 95.6884 10.4283 96.2654 9.23141C96.8109 8.0957 97.6529 7.12942 98.7014 6.43596C99.7886 5.73006 101.061 5.36651 102.356 5.392C103.637 5.35978 104.903 5.68663 106.01 6.33605C107.037 6.96018 107.863 7.86856 108.389 8.95207C108.959 10.1408 109.244 11.4476 109.219 12.767C109.223 13.0144 109.195 13.2613 109.134 13.5011H97.8001C97.8226 14.4767 98.0945 15.4304 98.5898 16.27C99.0192 16.9879 99.6365 17.5742 100.374 17.9645C101.071 18.3358 101.849 18.5299 102.638 18.5292C104.476 18.5292 105.891 17.6632 106.885 15.9315L108.915 16.9205C108.332 18.0498 107.464 19.0058 106.397 19.6914C105.338 20.371 104.058 20.7109 102.559 20.7109C101.26 20.728 99.9824 20.3828 98.8679 19.7139ZM106.686 11.5212C106.64 10.8901 106.467 10.275 106.178 9.71262C105.853 9.08318 105.361 8.5555 104.757 8.18746C104.022 7.74927 103.176 7.53335 102.321 7.56557C101.265 7.53926 100.239 7.93054 99.4667 8.65438C98.6653 9.42186 98.1284 10.4263 97.9341 11.5212H106.686Z" fill="black"/>
<path d="M110.766 5.84469H113.046V8.16098H113.157C113.462 7.33743 114.035 6.6405 114.782 6.18315C115.529 5.673 116.41 5.39693 117.313 5.39C117.891 5.37613 118.465 5.48236 119 5.70196V8.27312C118.368 7.96523 117.672 7.81068 116.97 7.8225C116.287 7.81945 115.62 8.02662 115.058 8.41585C114.472 8.82508 113.998 9.37459 113.677 10.0144C113.331 10.6836 113.152 11.4276 113.157 12.1819V20.2522H110.768V5.84469H110.766Z" fill="black"/>
<path d="M81.083 22.853H42.3488V36.1344H81.083V22.853Z" fill="#333333"/>
<path d="M48.7411 31.4855V26.4033H50.0539C50.56 26.4033 50.9475 26.4994 51.2164 26.6918C51.4876 26.884 51.6232 27.161 51.6232 27.5227C51.6232 28.1386 51.2768 28.577 50.5839 28.8379C51.4113 29.0921 51.825 29.5511 51.825 30.215C51.825 30.6271 51.6882 30.9418 51.4147 31.1593C51.1411 31.3768 50.7468 31.4855 50.2317 31.4855H48.7411ZM49.4522 30.9463H49.5993C50.1258 30.9463 50.4665 30.9132 50.6215 30.8468C50.9178 30.721 51.066 30.4874 51.066 30.1463C51.066 29.844 50.9315 29.5934 50.6625 29.3942C50.3936 29.1928 50.0574 29.0921 49.654 29.0921H49.4522V30.9463ZM49.4522 28.6354H49.6813C50.0642 28.6354 50.3605 28.5529 50.5702 28.3881C50.7822 28.2233 50.8882 27.991 50.8882 27.6909C50.8882 27.1919 50.503 26.9424 49.7326 26.9424H49.4522V28.6354Z" fill="white"/>
<path d="M55.5105 31.3654C55.0594 31.5026 54.673 31.5714 54.3515 31.5714C53.8046 31.5714 53.3578 31.3893 53.0114 31.0254C52.6672 30.659 52.4951 30.1853 52.4951 29.6037C52.4951 29.0383 52.6467 28.5747 52.9498 28.213C53.2553 27.8513 53.6451 27.6703 54.1192 27.6703C54.5681 27.6703 54.9146 27.8306 55.1584 28.1512C55.4047 28.4717 55.5277 28.9273 55.5277 29.5178L55.5243 29.7274H53.1823C53.2803 30.6133 53.7122 31.0563 54.4781 31.0563C54.7584 31.0563 55.1026 30.9807 55.5105 30.8297V31.3654ZM53.213 29.2191H54.8508C54.8508 28.5255 54.5932 28.1786 54.078 28.1786C53.5606 28.1786 53.2723 28.5255 53.213 29.2191Z" fill="white"/>
<path d="M56.6935 31.4855V26.0632H57.3671V31.4855H56.6935Z" fill="white"/>
<path d="M58.7311 32.7252L58.8098 32.138C59.1996 32.3234 59.5835 32.4161 59.962 32.4161C60.721 32.4161 61.1005 32.0121 61.1005 31.204V30.6168C60.852 31.1387 60.444 31.3997 59.8765 31.3997C59.432 31.3997 59.0787 31.2371 58.8166 30.9121C58.5545 30.5869 58.4235 30.1486 58.4235 29.5969C58.4235 29.0291 58.5727 28.5667 58.8713 28.2095C59.1699 27.8524 59.5562 27.6738 60.0303 27.6738C60.4452 27.6738 60.8019 27.8433 61.1005 28.1821V27.7562H61.7774V30.4691C61.7774 31.0528 61.7466 31.4845 61.6851 31.7637C61.6259 32.0453 61.5131 32.2754 61.3466 32.4539C61.0526 32.7676 60.5956 32.9244 59.9756 32.9244C59.5425 32.9244 59.1277 32.858 58.7311 32.7252ZM61.1005 30.1944V28.6457C60.8042 28.3366 60.4816 28.1821 60.1329 28.1821C59.823 28.1821 59.5802 28.3068 59.4047 28.5564C59.2292 28.806 59.1414 29.1481 59.1414 29.5831C59.1414 30.4003 59.4274 30.809 59.9996 30.809C60.3893 30.809 60.7562 30.6042 61.1005 30.1944Z" fill="white"/>
<path d="M63.0869 31.4855V27.7562H63.7604V31.4855H63.0869ZM63.0869 27.0798V26.4033H63.7604V27.0798H63.0869Z" fill="white"/>
<path d="M67.4323 31.4855V30.785C67.0745 31.3092 66.6402 31.5714 66.1297 31.5714C65.806 31.5714 65.5484 31.4695 65.3569 31.2658C65.1656 31.0598 65.0698 30.7828 65.0698 30.4347V27.7562H65.7434V30.215C65.7434 30.4942 65.7832 30.6934 65.863 30.8125C65.945 30.9292 66.0807 30.9875 66.2698 30.9875C66.6801 30.9875 67.0677 30.7163 67.4323 30.1738V27.7562H68.1059V31.4855H67.4323Z" fill="white"/>
<path d="M69.4597 31.4855V27.7562H70.1333V28.4568C70.4614 27.9348 70.8832 27.6738 71.3983 27.6738C71.8952 27.6738 72.2336 27.9348 72.4136 28.4568C72.7328 27.9325 73.1477 27.6703 73.6581 27.6703C73.9864 27.6703 74.2405 27.7677 74.4205 27.9623C74.6007 28.1546 74.6907 28.4247 74.6907 28.7726V31.4855H74.0137V28.8791C74.0137 28.4534 73.8461 28.2404 73.5111 28.2404C73.1624 28.2404 72.7966 28.4888 72.4136 28.9856V31.4855H71.7367V28.8791C71.7367 28.4511 71.5658 28.2369 71.2239 28.2369C70.8843 28.2369 70.5207 28.4865 70.1333 28.9856V31.4855H69.4597Z" fill="white"/>
<defs>
<linearGradient id="paint0_linear_255_9129" x1="16.1092" y1="37.1741" x2="17.0106" y2="38.0726" gradientUnits="userSpaceOnUse">
<stop stop-opacity="0.15"/>
<stop offset="0.2" stop-opacity="0.15"/>
<stop offset="0.85" stop-color="#616161" stop-opacity="0.01"/>
<stop offset="1" stop-color="#616161" stop-opacity="0.01"/>
</linearGradient>
<linearGradient id="paint1_linear_255_9129" x1="16.1042" y1="30.712" x2="25.6696" y2="30.712" gradientUnits="userSpaceOnUse">
<stop stop-opacity="0.55"/>
<stop offset="0.2" stop-opacity="0.55"/>
<stop offset="0.85" stop-color="#616161" stop-opacity="0.01"/>
<stop offset="1" stop-color="#616161" stop-opacity="0.01"/>
</linearGradient>
</defs>
</svg>
